/* XPM */
static char *_c6a1277a02f49b9bd069add80293179[] = {
/* columns rows colors chars-per-pixel */
"64 64 52 1 ",
"  c #0A0D0E",
". c #0B0F10",
"X c #0C1113",
"o c #0F1418",
"O c #101417",
"+ c #111619",
"@ c #151A1D",
"# c #181D1E",
"$ c #171D20",
"% c #191E22",
"& c #1B2125",
"* c #1E252A",
"= c #1F282A",
"- c #20272A",
"; c #222A2D",
": c #26302F",
"> c #252E31",
", c #282F35",
"< c #292F38",
"1 c #273033",
"2 c #2B3336",
"3 c #2D353A",
"4 c #2E393B",
"5 c #30373D",
"6 c #323A3E",
"7 c #33403F",
"8 c #2F3740",
"9 c #313740",
"0 c #343D41",
"q c #383F45",
"w c #364244",
"e c #384447",
"r c #3B454A",
"t c #3E494D",
"y c #3F4C51",
"u c #40464F",
"i c #40494E",
"p c #434D52",
"a c #475156",
"s c #485257",
"d c #4B545A",
"f c #4E595E",
"g c #4F5B60",
"h c #525D62",
"j c #556166",
"k c #586167",
"l c #576268",
"z c #5A646B",
"x c #5E686E",
"c c #5F6970",
"v c #616B72",
"b c #677179",
/* pixels */
"656ee6q77q6666666663566u#-::>>>>>>=>=>=>11;orw60eeeewweXieeeew76",
"6666fqw6u677u6qq65553662O-::1>>=>=>>>=:>;1;&f606660eew7&u776e7e6",
"q66q-wqe6e666666q665446:X;-,;1=1==>==;=;>==*f64696w0we6#wwqee7w6",
"6666;eweeuu7q66u653e326-X-;:>;1>>>=>;;;;;=>3f554666676u#66677655",
"6q60-eewu656766qru;26602%5&;;;=&>;=;=;;;;>=<w441429054u;63626u64",
"q6qe-pwwee656q63>,;,606=@x%*=&=&======;;>14o381>2222252&:2657676",
"660,-qpr74235;&&&>:>65w*.x&%&&=====&==;;<1=.w$>8555455d--6555566",
"q--k;h%%#######&@-%&&&&w@5@@$&&$&&&=&&&&&@%X=&&&%&-&%&- -;#&&#-:",
"2 ::#OXXX.&#:--.&@;;>+.+;-:-& X+$XXXXX..XXXXoXXoXXXo ..XXX.OXO :",
"psssfdfddxkfqsf.ac0ewe6tewe7ridfgdX4vjlfjdglllllzzhtw02>-:,2shfu",
"7t7r7i4323255xkpaw070eeeerteeiteyyX4ywetwweew774664884<=---2ii7w",
"eweei7765554554uw40w0ewtweeteiityyw8wwttwyeww774044w4w7w;--;66qw",
"wetw7772252256iiw4w3wweereetettptp3reetwwwwwww7700488w4ww72;26ww",
"eetw7653656526qp<14e40eereterpadr=-r6eetywwwww7w4w08www7w2e2;6qw",
"ww7744642656627:<1<1804eteeerpy%*4;4t0eewwwwwwwww000w3www7w;-46e",
"ww7732262266565.12>13<w6eeeetih=34;3wweewwwwwwww000040w00ww2;i6e",
"w77433242;;>55&O>225,29907wwyy@369&>tgqqe00ww00088909w06400q;969",
"::wyafa=*-&&&%&Xr,>-%-&%&$&=<r*44p&-&;*>3yyayyr003>;etre8=*==**;",
"o@oXXX.X X%%%@XX-%X.O.XX..X+@X>XXX.XXX..oXX.oX.o.XXXXX.X..XX.XX+",
"eyggjhjhjizkhgssisu05;xaayyyspfjljzlzhhsgt4a0wrqwepo084Xexp4eep0",
"56594644srfur6+960w62-a5141ww7<022499590y44r>>-;=>;44241pse0q002",
"2569489900u;*@s900q632sewwwe84a3222434594q5;>-;;>>&w32:4pieee054",
"2325939894Xssq490q6w2>e6w484r11>112>>4952u2>====>%831224eteewi52",
"2228859492easq400qqq2-u644;11;;;11>3,34520>->=>>>$8311232wwee662",
"335255399&0st890qww9-;0492><>><11211<33429;;;;>;&022:1>,4eeei632",
"325655559;5uq60q00q0-&3222;<<1;<2331233824*;;-;;+422212-&07e6635",
"555555550;-u6;0wew9>->>4<1;;=;232338336r;;%>;;;$e2:;;6-#&e566632",
"252553669;-h9rwwerh>>->233<112313234e006-;@1;--*=11:p&%-&p6r6553",
"-------;-5*g--**==*;9=g;=1;;;;=*;***=*=d--@+@+&+$@+$@#%%-#&#-&--",
"  OOOOXOO.XXXXX ..X....X.XXXXXXXX  .  XXX  X.  oX.XX  X X  .O   ",
"uahsd3h62;26wwrttyrrrrq02@bzzjzjjfghjhhlhhjhdaafxatasdaddssu-5ii",
"2555d5i;;6;24:22>123>=*%=oxeeww460w0q6r654446wrz3y3w56655q6q;535",
"5252a6=4111:;><;42w;---&>.vw0q65649qs,444404466x4p666624320r0532",
"5555w31=142111>>=;-;**&** r605669w>243244334444i:i66664455555553",
"555442=1:=:1>;>;;=----&-*X;22326832224394422224a2u742459505,5565",
"55554;117:21;;=;;=;*;=&&*X2&&&&-444232544222422r;e72255<95555556",
"66663&11:4>:1;;=;=;*;**->Xwsihz-,4423442442242>4-:34335555335656",
"qu6ew&>=>=1=8;;=;**=--&&9Xqequed+&222>244324122<-,2243255326566q",
"606qy&&=>1>>1;==-&*=-*&&6X100qew0;-542411111>11>%;,226555336q6q6",
"-:3:w&w@&4;&&@&=>>>2;>920X-;222241O-2;&%&+&@@$$$,2-;:::;-*-,26q-",
"OXXXXOXXooXXXXXXoXX.+%-+OXXXX++X..XXXXXX ++XoX...X&&@&&&#&#&#-&&",
"ssadagkkzzljgadXzdhhhlstrrreir@aphjlfsXfw641=8<866*=xjjjhdgdhlds",
"66w67weeeeeteryosv2494erriiip;appterhs$4:=:1===*;j3-x47wqww77w66",
"7q6w7w7wwwwerwygs446wqqertii1ip6rteeeh$42:;1>=*=&*42j6ww6reeewww",
"74w0w76060wweetrs2425w6rritr&fasprwwwy$1=1>=>==<&&:6d46wwwweewe7",
"ww7776504w6weetts412266eriue&aaeytww7y@1=1>==>=&&@*4t4w6www77776",
"0w0w050990wwwwtwi612246w9ttr&gteerw77wX1=1=>>;=&&%&4r12&e7eww777",
"w4ww0-q0404wwwe0e64224666wrr%feeewww77.=;==;**&&&%*22:;;&sw7w76w",
"w77w7e66660e0ww20r22,46456w6>eewwwww27.:&=&;=;&&&&&+1;;=&&%www47",
"4w44677000qq6w;22u4222056665%ee440342r.w>=*=&&&&&&&X;1>;***+www4",
"364wesw65re0q&&;-h&&&&----&2;2,>=====2.=y80<==*%$$<X&410&&*=4643",
"==*&&&&&%&-&;.OX;-;-%%&&%&&%&%$%&>.+X=XXo*&*&&&&&+.X&$$&&&&*X=*=",
"dt4tfzfaXaawe2,;;:524qppphhdd.shhhhgyyyypasgfdsXxatpasaffggffffp",
"w67we7zpOaxtrrqdu0qq0tturrqfddpb00w0wryewrwwt6eXy32wwwewww622264",
"7wwwweet2pee6w66q699909qq0q5zdhv40qqwwwyeweee00Xs347twww7w244277",
"47wweeew=peee766525<33895055zshx4800wwyweweew60Xg3234ew07w662326",
"464weee6=prww4323335223850q6fddh2400weeeteeww42&t444334840094324",
"5464weew&teew2w463s:,32356500ri22599eeeweeew06, 4122333849893346",
"6447wer5&iw7444<6O-;,>22596e0qe2>50qwweee0e964,.>1<4<28<33432344",
"6267eeee#t77<440;;;,>23355eq6q0>295uweewe66364>.&>;=>13222>23234",
"566weeudXe33121X-;-;;22600due024>2448www966469-X$9;;>;2>3<>23324",
"*&-&%%#&Xq&&&&2=---:;;&#%#@%*oX#$$$%&&@&*%%%%%%X**&%$%%&%=-==*-&",
"idd+.sdsapaaasdspaauudd5X650995689w44304q0*XssssssssaaaXopass-rp",
"566i5hr0q00494005662656e2p>2>>>>>>>;;==11;41hi6we0we0qtoah0qq009"
};
